<svg xmlns="http://www.w3.org/2000/svg" version="1.1" xmlns:xlink="http://www.w3.org/1999/xlink" xmlns:svgjs="http://svgjs.com/svgjs" width="1660" height="720" preserveAspectRatio="none" viewBox="0 0 1660 720"><g mask="url(&quot;#SvgjsMask1087&quot;)" fill="none"><rect width="1660" height="720" x="0" y="0" fill="rgba(120, 66, 18, 1)"></rect><path d="M0,810.93C152.499,780.905,169.678,551.489,299.408,465.888C426.483,382.039,648.481,462.546,726.297,331.689C801.608,205.045,683.865,46.653,630.352,-90.631C587.274,-201.143,506.913,-284.759,446.271,-386.696C369.365,-515.972,370.595,-728.215,226.127,-770.118C81.501,-812.067,-38.102,-644.22,-165.661,-564.188C-258.993,-505.631,-330.842,-428.386,-420.537,-364.397C-545.477,-275.265,-736.381,-255.852,-796.064,-114.457C-855.265,25.794,-787.197,192.85,-711.507,324.934C-639.343,450.865,-506.005,519.002,-386.154,600.867C-262.654,685.224,-146.743,839.822,0,810.93" fill="#4e2b0c"></path><path d="M1660 1261.078C1768.911 1242.9859999999999 1878.77 1260.161 1982.025 1221.0810000000001 2104.556 1174.7060000000001 2262.224 1138.6770000000001 2307.871 1015.873 2354.008 891.751 2246.866 765.457 2196.98 642.794 2158.615 548.4590000000001 2118.348 457.561 2050.08 381.994 1982.9180000000001 307.652 1902.01 249.942 1808.827 213.14100000000002 1708.769 173.625 1598.094 127.822 1496.566 163.39300000000003 1395.843 198.68200000000002 1365.7 324.865 1286.319 396.203 1190.923 481.93399999999997 1013.467 497.876 985.171 622.974 957.438 745.583 1116.511 830.27 1161.597 947.613 1211.092 1076.431 1144.183 1267.387 1260.999 1340.857 1378.185 1414.56 1523.434 1283.7640000000001 1660 1261.078" fill="#a25918"></path></g><defs><mask id="SvgjsMask1087"><rect width="1660" height="720" fill="#ffffff"></rect></mask></defs></svg>