<svg xmlns="http://www.w3.org/2000/svg" version="1.1" xmlns:xlink="http://www.w3.org/1999/xlink" xmlns:svgjs="http://svgjs.com/svgjs" width="1660" height="720" preserveAspectRatio="none" viewBox="0 0 1660 720"><g mask="url(&quot;#SvgjsMask1013&quot;)" fill="none"><rect width="1660" height="720" x="0" y="0" fill="#0e2a47"></rect><path d="M0,780.566C142.762,750.886,192.739,569.6,314.567,489.475C434.383,410.673,613.417,433.862,700.452,319.886C790.719,201.677,794.825,35.983,773.24,-111.175C751.691,-258.093,698.587,-413.282,579.838,-502.433C466,-587.897,306.729,-542.783,166.413,-566.752C46.161,-587.294,-64.036,-637.975,-185.938,-633.245C-336.777,-627.392,-516.161,-646.876,-618.9,-536.28C-721.421,-425.919,-687.718,-248.754,-682.975,-98.197C-678.905,30.997,-638.046,149.7,-593.468,271.028C-545.154,402.524,-517.877,549.183,-411.587,640.441C-299.354,736.802,-144.828,810.676,0,780.566" fill="#091b2e"></path><path d="M1660 1334.692C1784.81 1329.4070000000002 1910.01 1337.5149999999999 2023.98 1286.364 2150.007 1229.8020000000001 2285.342 1157.374 2338.844 1030.018 2392.071 903.315 2339.806 759.614 2300.6 627.896 2265.917 511.372 2196.627 415.119 2126.301 315.948 2048.236 205.865 1998.424 45.39200000000005 1866.703 16.034999999999968 1733.909-13.561000000000035 1633.988 150.678 1500.4 176.45299999999997 1344.319 206.56799999999998 1151.033 70.18499999999995 1033.179 176.856 919.726 279.545 987.34 473.58299999999997 1004.069 625.691 1017.462 747.467 1075.297 852.545 1120.034 966.594 1167.788 1088.335 1167.6019999999999 1244.392 1275.655 1318.0520000000001 1383.8020000000001 1391.7759999999998 1529.231 1340.229 1660 1334.692" fill="#133960"></path></g><defs><mask id="SvgjsMask1013"><rect width="1660" height="720" fill="#ffffff"></rect></mask></defs></svg>